<svg xmlns="http://www.w3.org/2000/svg" width="312" height="200" fill="none" viewBox="0 0 312 200">
  <g clip-path="url(#a)">
    <path fill="#F3F2EF" d="M0 0h312v200H0z"/>
    <path fill="#F3F2EF" d="M0 0h312v200H0z"/>
    <path fill="#2CA01C" d="M73.417 121.834c13.485 0 24.417-10.932 24.417-24.417C97.834 83.932 86.902 73 73.417 73 59.932 73 49 83.932 49 97.417c0 13.485 10.932 24.417 24.417 24.417Z"/>
    <path fill="#fff" fill-rule="evenodd" d="M91.06 97.415a9.495 9.495 0 0 1-9.495 9.495v.002h-6.788V81.41a3.526 3.526 0 0 1 3.527 3.527v18.448h3.26a5.972 5.972 0 0 0 5.97-5.969 5.972 5.972 0 0 0-5.97-5.968H80.21V87.92h1.356c5.246 0 9.495 4.254 9.495 9.495Zm-35.279 0c0-5.241 4.249-9.495 9.495-9.495h6.788v25.501a3.526 3.526 0 0 1-3.527-3.526V91.446h-3.26a5.972 5.972 0 0 0-5.97 5.97 5.972 5.972 0 0 0 5.97 5.968h1.356v3.526h-1.357c-5.246 0-9.495-4.254-9.495-9.495Z" clip-rule="evenodd"/>
    <path fill="#000" fill-rule="evenodd" d="M121.936 75.377c3.896 0 6.967 2.8 6.967 6.63l.011 8.795h-3.771v-8.345c0-2.067-1.384-3.45-3.202-3.45s-3.201 1.383-3.201 3.45v8.346h-3.771v-8.796c0-3.836 3.071-6.63 6.967-6.63Zm24.187 9.098c0 3.83 3.066 6.63 6.962 6.63s6.967-2.794 6.967-6.63V75.68h-3.776v8.345c0 2.067-1.384 3.45-3.202 3.45s-3.201-1.383-3.201-3.45V75.68h-3.771l.021 8.795Zm18 11.94h3.771v15.04h.092l5.729-6.36h4.846l-6.544 6.831 6.956 8.275h-5.002l-5.98-7.743h-.092v7.743h-3.776V96.414Zm-46.877 31.344h3.777v-.001h-.006v-22.665h-3.62v2.111h-.092c-.754-1.199-2.457-2.55-5.225-2.55-4.308 0-7.33 3.527-7.33 7.933s2.832 8.058 7.428 8.058c2.106 0 4.027-.944 5.003-2.452h.065v9.566Zm.13-15.106c0 2.36-1.671 4.845-4.439 4.845v.001c-2.929 0-4.346-2.551-4.34-4.911 0-2.36 1.416-4.845 4.34-4.845 2.773 0 4.439 2.55 4.439 4.91Zm17.016 7.553h3.586V105.1h-3.777v8.307c0 2.013-1.101 4.091-3.526 4.091s-2.832-2.23-2.832-4.026V105.1h-3.777v9.441c0 3.081 1.64 6.104 5.573 6.104 2.236 0 4.027-1.356 4.688-2.865h.065v2.426Zm7.381-15.436h3.777v15.106h-3.777V104.77Zm14.782 3.031c1.227 0 2.518.63 3.115 1.482l2.582-2.263c-1.198-1.481-3.493-2.36-5.697-2.36-4.438 0-8.09 2.958-8.09 7.993s3.712 7.992 8.183 7.992c2.235 0 4.313-.76 5.572-2.111l-2.36-2.393c-.727.879-2.013 1.351-3.179 1.351-2.865 0-4.282-2.485-4.282-4.845s1.389-4.846 4.156-4.846Zm27.915-.779V96.414h-3.782v23.798h3.586v-2.268h.065c1.036 1.732 3.082 2.708 5.193 2.708 4.595 0 7.428-3.587 7.428-8.058s-3.017-7.932-7.33-7.932c-2.773 0-4.282 1.383-5.068 2.36h-.092Zm-.126 5.632c0-2.36 1.672-4.91 4.439-4.91v-.001c2.925 0 4.34 2.484 4.34 4.845 0 2.361-1.415 4.911-4.34 4.911-2.773 0-4.439-2.485-4.439-4.845Zm22.472-7.994c4.564 0 8.216 3.18 8.216 7.933s-3.652 8.058-8.216 8.058c-4.563 0-8.214-3.305-8.214-8.058s3.651-7.933 8.214-7.933Zm0 12.838c2.99 0 4.374-2.55 4.374-4.911 0-2.361-1.384-4.845-4.374-4.845-2.99 0-4.373 2.485-4.373 4.845 0 2.361 1.383 4.911 4.373 4.911Zm26.289-4.905c0-4.753-3.651-7.933-8.214-7.933-4.564 0-8.215 3.18-8.215 7.933s3.651 8.058 8.215 8.058c4.563 0 8.214-3.305 8.214-8.058Zm-3.841-.006c0 2.361-1.384 4.911-4.373 4.911-2.99 0-4.379-2.55-4.374-4.911 0-2.36 1.384-4.845 4.374-4.845 2.989 0 4.373 2.484 4.373 4.845Zm6.132-16.173h3.771v15.041h.092l5.731-6.36h4.845l-6.544 6.831 6.957 8.275h-5.004l-5.979-7.743h-.092v7.743h-3.777V96.414Zm21.852 11.073c1.384 0 2.643.759 3.305 1.638L263 106.95c-1.227-1.542-3.495-2.296-5.665-2.296-2.99 0-6.012 1.443-6.012 4.813 0 2.833 2.236 3.743 4.472 4.281 2.294.532 3.461.912 3.461 2.17 0 1.356-1.324 1.796-2.426 1.796a4.926 4.926 0 0 1-3.868-1.888l-2.485 2.328c1.449 1.606 3.874 2.485 6.202 2.485 3.304 0 6.294-1.35 6.294-5.035 0-2.957-2.643-3.961-4.879-4.498-2.104-.499-3.271-.782-3.271-1.981 0-1.198 1.232-1.638 2.425-1.638Zm-82.603-28.275h-4.504V75.68h12.772v3.532h-4.497v11.59h-3.771v-11.59Zm-6.944-3.532h-3.771v15.122h3.771V75.68Zm-32.306 3.532h-4.503V75.68h12.772v3.532h-4.498v11.59h-3.771v-11.59Zm-24.3-3.532h-3.771v15.122h3.771V75.68Z" clip-rule="evenodd"/>
  </g>
  <defs>
    <clipPath id="a">
      <path fill="#fff" d="M0 0h312v200H0z"/>
    </clipPath>
  </defs>
</svg>
